<svg width="512" height="512" xmlns="http://www.w3.org/2000/svg">

 <g>
  <title>background</title>
  <rect fill="none" id="canvas_background" height="402" width="582" y="-1" x="-1"/>
 </g>
 <g>
  <title>Layer 1</title>
  <path fill="#1A333F" id="svg_1" d="m256,0c-141.16406,0 -256,114.83594 -256,256s114.83594,256 256,256s256,-114.83594 256,-256s-114.83594,-256 -256,-256zm94.27344,320.10547c8.33984,8.34375 8.33984,21.82422 0,30.16797c-4.16016,4.16015 -9.6211,6.25 -15.08594,6.25c-5.46094,0 -10.92187,-2.08985 -15.08203,-6.25l-64.10547,-64.10938l-64.10547,64.10938c-4.16016,4.16015 -9.62109,6.25 -15.08203,6.25c-5.46484,0 -10.92578,-2.08985 -15.08594,-6.25c-8.33984,-8.34375 -8.33984,-21.82422 0,-30.16797l64.10938,-64.10547l-64.10938,-64.10547c-8.33984,-8.34375 -8.33984,-21.82422 0,-30.16797c8.34375,-8.33984 21.82422,-8.33984 30.16797,0l64.10547,64.10938l64.10547,-64.10938c8.34375,-8.33984 21.82422,-8.33984 30.16797,0c8.33984,8.34375 8.33984,21.82422 0,30.16797l-64.10938,64.10547l64.10938,64.10547zm0,0"/>
 </g>
</svg>